<svg width="72" height="72" viewBox="0 0 72 72" fill="none" xmlns="http://www.w3.org/2000/svg">
<path d="M54.2904 42.4114C54.7958 41.7362 53.9701 41.1601 53.2336 41.5712L37.2129 50.5133C36.5505 50.883 35.2235 50.8828 34.5618 50.5128L18.5681 41.5712C17.8329 41.1602 17.0081 41.7351 17.5123 42.4097V42.4097L33.5009 63.8034C34.6927 65.398 37.0825 65.3989 38.2755 63.8053L54.2904 42.4114V42.4114Z" fill="#499971"/>
<path d="M52.8748 38.1875C54.4931 37.2843 55.0341 35.2157 54.0653 33.6359L38.6855 8.55608C37.4127 6.48042 34.3965 6.48152 33.1251 8.5581L17.7713 33.6368C16.8046 35.2158 17.345 37.2819 18.961 38.1853L34.3162 46.77C35.3043 47.3224 36.5081 47.3228 37.4965 46.7711L52.8748 38.1875Z" fill="#499971"/>
<mask id="mask0_9_961" style="mask-type:alpha" maskUnits="userSpaceOnUse" x="17" y="7" width="38" height="41">
<path d="M52.8748 38.1878C54.4931 37.2846 55.0341 35.216 54.0653 33.6361L38.6855 8.55632C37.4127 6.48067 34.3965 6.48176 33.1251 8.55834L17.7713 33.637C16.8046 35.216 17.345 37.2821 18.961 38.1856L34.3162 46.7702C35.3043 47.3226 36.5081 47.323 37.4965 46.7713L52.8748 38.1878Z" fill="#499971"/>
</mask>
<g mask="url(#mask0_9_961)">
<rect x="35.8896" y="-1.15146" width="35.8667" height="43.2356" fill="#647668"/>
</g>
<mask id="mask1_9_961" style="mask-type:alpha" maskUnits="userSpaceOnUse" x="17" y="41" width="38" height="24">
<path d="M54.2901 42.4116C54.7956 41.7363 53.9699 41.1602 53.2334 41.5713L37.2127 50.5134C36.5503 50.8831 35.2233 50.8829 34.5616 50.513L18.5678 41.5714C17.8326 41.1603 17.0078 41.7352 17.5121 42.4099V42.4099L33.5007 63.8035C34.6924 65.3981 37.0823 65.399 38.2752 63.8054L54.2901 42.4116V42.4116Z" fill="#499971"/>
</mask>
<g mask="url(#mask1_9_961)">
<rect x="35.8896" y="36.9324" width="35.8667" height="43.2356" fill="#647668"/>
</g>
<mask id="mask2_9_961" style="mask-type:alpha" maskUnits="userSpaceOnUse" x="17" y="7" width="38" height="41">
<path d="M52.8748 38.1878C54.4931 37.2846 55.0341 35.216 54.0653 33.6361L38.6855 8.55632C37.4127 6.48067 34.3965 6.48176 33.1251 8.55834L17.7713 33.637C16.8046 35.216 17.345 37.2821 18.961 38.1856L34.3162 46.7702C35.3043 47.3226 36.5081 47.323 37.4965 46.7713L52.8748 38.1878Z" fill="#499971"/>
</mask>
<g mask="url(#mask2_9_961)">
<path d="M36.1498 29.6226L53.6536 37.3744C54.193 37.6133 54.2581 38.3527 53.7688 38.6822L36.2652 50.467C36.0118 50.6375 35.6804 50.6375 35.4272 50.4668L17.9419 38.6808C17.4529 38.3512 17.5181 37.6123 18.0572 37.3733L35.5422 29.6227C35.7356 29.537 35.9563 29.5369 36.1498 29.6226Z" fill="#B0A99F" stroke="#FFB30F" stroke-width="1.76073"/>
</g>
</svg>