<svg width="86" height="86" viewBox="0 0 86 86" fill="none" xmlns="http://www.w3.org/2000/svg">
    <path d="M43 28.6667L30.4583 21.5V7.16667L43 0L55.5417 7.16667V21.5L43 28.6667Z" fill="white"/>
    <path d="M68.0833 43L55.5417 35.8333V21.5L68.0833 14.3333L80.625 21.5V35.8333L68.0833 43Z" fill="white"/>
    <path d="M55.5417 64.5V50.1667L68.0833 43L80.625 50.1667V64.5L68.0833 71.6667L55.5417 64.5Z" fill="white"/>
    <path d="M30.4583 64.5L43 57.3333L55.5417 64.5V78.8333L43 86L30.4583 78.8333V64.5Z" fill="white"/>
    <path d="M17.9167 43L30.4583 50.1667V64.5L17.9167 71.6667L5.375 64.5V50.1667L17.9167 43Z" fill="white"/>
    <path d="M17.9167 43L30.4583 35.8333V21.5L17.9167 14.3333L5.375 21.5V35.8333L17.9167 43Z" fill="white"/>
</svg>
